<svg xmlns="http://www.w3.org/2000/svg" width="130.3" height="91" viewBox="0 0 130.3 91">
  <g id="logo" transform="translate(-895 -133)">
    <g id="Ellipse_1" data-name="Ellipse 1" transform="translate(895 140)" fill="#c78b99" stroke="#fff" stroke-width="10">
      <circle cx="28" cy="28" r="28" stroke="none"/>
      <circle cx="28" cy="28" r="23" fill="none"/>
    </g>
    <g id="Ellipse_2" data-name="Ellipse 2" transform="translate(923 168)" fill="#fff" stroke="#c78b99" stroke-width="5">
      <ellipse cx="28.5" cy="28" rx="28.5" ry="28" stroke="none"/>
      <ellipse cx="28.5" cy="28" rx="26" ry="25.5" fill="none"/>
    </g>
    <g id="Ellipse_3" data-name="Ellipse 3" transform="translate(940 133)" fill="#c78b99" stroke="#6c6c6c" stroke-width="10">
      <ellipse cx="27" cy="28.5" rx="27" ry="28.5" stroke="none"/>
      <ellipse cx="27" cy="28.5" rx="22" ry="23.5" fill="none"/>
    </g>
    <path id="Path_41" data-name="Path 41" d="M1.521,0V-13.3H6.234q7.088,0,7.088,6.485a6.557,6.557,0,0,1-1.934,4.963A7.133,7.133,0,0,1,6.234,0Zm3-10.864v8.433H6A4.011,4.011,0,0,0,9.059-3.6a4.435,4.435,0,0,0,1.109-3.182,4.024,4.024,0,0,0-1.1-2.992,4.191,4.191,0,0,0-3.085-1.09ZM23.509,0H15.53V-13.3H23.2v2.44H18.527V-7.9h4.351v2.431H18.527v3.043h4.982Zm13.3-13.3L32.229,0h-3.4L24.307-13.3h3.229l2.774,9.259a6.631,6.631,0,0,1,.269,1.327h.056a7.5,7.5,0,0,1,.288-1.364L33.677-13.3ZM46.387,0H38.408V-13.3h7.672v2.44H41.4V-7.9h4.351v2.431H41.4v3.043h4.982ZM56.443,0H48.521V-13.3h3V-2.431h4.926Zm6.939.232a6.193,6.193,0,0,1-4.657-1.86,6.678,6.678,0,0,1-1.8-4.847,7.156,7.156,0,0,1,1.828-5.1A6.328,6.328,0,0,1,63.6-13.526,6.038,6.038,0,0,1,68.2-11.662,6.875,6.875,0,0,1,69.96-6.745a7.041,7.041,0,0,1-1.823,5.056A6.257,6.257,0,0,1,63.383.232Zm.13-11.179a3.016,3.016,0,0,0-2.5,1.183,4.932,4.932,0,0,0-.928,3.131,4.841,4.841,0,0,0,.928,3.126,2.973,2.973,0,0,0,2.431,1.15A3,3,0,0,0,65.9-3.474a4.788,4.788,0,0,0,.909-3.1A5.188,5.188,0,0,0,65.925-9.8,2.874,2.874,0,0,0,63.513-10.947ZM75.165-4.583V0h-3V-13.3h4.694q5.028,0,5.028,4.24a4.068,4.068,0,0,1-1.443,3.242,5.715,5.715,0,0,1-3.855,1.239Zm0-6.42v4.147h1.178q2.394,0,2.394-2.1,0-2.05-2.394-2.05ZM83.227-.51V-3.479A5.7,5.7,0,0,0,84.98-2.463a5.636,5.636,0,0,0,1.911.339,4.238,4.238,0,0,0,.988-.1,2.314,2.314,0,0,0,.705-.283,1.234,1.234,0,0,0,.422-.427,1.065,1.065,0,0,0,.139-.533,1.153,1.153,0,0,0-.223-.7,2.4,2.4,0,0,0-.608-.566,6.35,6.35,0,0,0-.914-.5q-.529-.241-1.141-.492a5.824,5.824,0,0,1-2.324-1.586,3.463,3.463,0,0,1-.765-2.264,3.605,3.605,0,0,1,.417-1.786,3.546,3.546,0,0,1,1.136-1.229,5.1,5.1,0,0,1,1.665-.71,8.557,8.557,0,0,1,2-.227,12.053,12.053,0,0,1,1.842.125,7.242,7.242,0,0,1,1.48.385v2.774a4.474,4.474,0,0,0-.728-.408,5.77,5.77,0,0,0-.812-.292,6.192,6.192,0,0,0-.83-.172,5.877,5.877,0,0,0-.784-.056,4.088,4.088,0,0,0-.928.1,2.38,2.38,0,0,0-.705.274,1.362,1.362,0,0,0-.445.422,1,1,0,0,0-.158.552,1.054,1.054,0,0,0,.176.6,2.022,2.022,0,0,0,.5.5,5.316,5.316,0,0,0,.789.464q.464.227,1.048.469a11.682,11.682,0,0,1,1.433.71,5.1,5.1,0,0,1,1.09.849,3.307,3.307,0,0,1,.7,1.081A3.819,3.819,0,0,1,92.3-3.739a3.79,3.79,0,0,1-.422,1.869A3.427,3.427,0,0,1,90.732-.645a4.968,4.968,0,0,1-1.684.673,9.731,9.731,0,0,1-2.027.2A11.272,11.272,0,0,1,84.939.046,6.287,6.287,0,0,1,83.227-.51Z" transform="translate(933 207)" fill="#707070"/>
    <path id="Path_43" data-name="Path 43" d="M13.395-10q0,5.063-2.347,7.752A8.531,8.531,0,0,1,4.254.439,9.669,9.669,0,0,1,.58-.246V-5.572A5.274,5.274,0,0,0,3.85-4.465q3.885,0,3.885-5.766V-25.207h5.66Z" transform="translate(916.013 180.384)" fill="#707070"/>
    <path id="Path_42" data-name="Path 42" d="M17.895,0H2.883V-25.207H8.561v20.6h9.334Z" transform="translate(958 174)" fill="#707070"/>
  </g>
</svg>
