<svg id="facebook-square-brands" xmlns="http://www.w3.org/2000/svg" width="25.042" height="25.042" viewBox="0 0 25.042 25.042">
  <path id="facebook-square-brands-2" data-name="facebook-square-brands" d="M22.359,32H2.683A2.683,2.683,0,0,0,0,34.683V54.359a2.683,2.683,0,0,0,2.683,2.683h7.672V48.528H6.833V44.521h3.522V41.467c0-3.474,2.068-5.393,5.236-5.393a21.334,21.334,0,0,1,3.1.271v3.41H16.946a2,2,0,0,0-2.259,2.165v2.6h3.845l-.615,4.007h-3.23v8.514h7.672a2.683,2.683,0,0,0,2.683-2.683V34.683A2.683,2.683,0,0,0,22.359,32Z" transform="translate(0 -32)"/>
</svg>
