<svg id="instagram-brands" xmlns="http://www.w3.org/2000/svg" width="25.056" height="25.05" viewBox="0 0 25.056 25.05">
  <path id="instagram-brands-2" data-name="instagram-brands" d="M12.456,37.928a6.423,6.423,0,1,0,6.423,6.423A6.412,6.412,0,0,0,12.456,37.928Zm0,10.6a4.176,4.176,0,1,1,4.176-4.176,4.183,4.183,0,0,1-4.176,4.176Zm8.183-10.861a1.5,1.5,0,1,1-1.5-1.5A1.495,1.495,0,0,1,20.639,37.665Zm4.254,1.52a7.413,7.413,0,0,0-2.023-5.249,7.462,7.462,0,0,0-5.249-2.023c-2.068-.117-8.267-.117-10.335,0a7.451,7.451,0,0,0-5.249,2.018A7.438,7.438,0,0,0,.013,39.18C-.1,41.248-.1,47.447.013,49.515a7.413,7.413,0,0,0,2.023,5.249,7.472,7.472,0,0,0,5.249,2.023c2.068.117,8.267.117,10.335,0a7.413,7.413,0,0,0,5.249-2.023,7.462,7.462,0,0,0,2.023-5.249C25.01,47.447,25.01,41.253,24.893,39.185ZM22.221,51.734a4.227,4.227,0,0,1-2.381,2.381c-1.649.654-5.562.5-7.384.5s-5.741.145-7.384-.5a4.227,4.227,0,0,1-2.381-2.381c-.654-1.649-.5-5.562-.5-7.384s-.145-5.741.5-7.384a4.227,4.227,0,0,1,2.381-2.381c1.649-.654,5.562-.5,7.384-.5s5.741-.145,7.384.5a4.227,4.227,0,0,1,2.381,2.381c.654,1.649.5,5.562.5,7.384S22.875,50.091,22.221,51.734Z" transform="translate(0.075 -31.825)"/>
</svg>
