<svg id="linkedin-brands" xmlns="http://www.w3.org/2000/svg" width="25.042" height="25.042" viewBox="0 0 25.042 25.042">
  <path id="linkedin-brands-2" data-name="linkedin-brands" d="M23.253,32H1.783A1.8,1.8,0,0,0,0,33.805V55.236a1.8,1.8,0,0,0,1.783,1.805h21.47a1.8,1.8,0,0,0,1.789-1.805V33.805A1.8,1.8,0,0,0,23.253,32ZM7.568,53.465H3.857V41.514H7.574V53.465ZM5.713,39.882a2.152,2.152,0,1,1,2.152-2.152A2.153,2.153,0,0,1,5.713,39.882ZM21.481,53.465H17.77V47.651c0-1.386-.028-3.169-1.928-3.169-1.934,0-2.23,1.509-2.23,3.069v5.914H9.9V41.514H13.46v1.632h.05a3.909,3.909,0,0,1,3.516-1.928c3.756,0,4.455,2.476,4.455,5.7Z" transform="translate(0 -32)"/>
</svg>
