<svg id="twitter-square-brands" xmlns="http://www.w3.org/2000/svg" width="25.042" height="25.042" viewBox="0 0 25.042 25.042">
  <path id="twitter-square-brands-2" data-name="twitter-square-brands" d="M22.359,32H2.683A2.684,2.684,0,0,0,0,34.683V54.359a2.684,2.684,0,0,0,2.683,2.683H22.359a2.684,2.684,0,0,0,2.683-2.683V34.683A2.684,2.684,0,0,0,22.359,32Zm-2.733,8.876c.011.157.011.319.011.475a10.359,10.359,0,0,1-10.43,10.43,10.382,10.382,0,0,1-5.629-1.643,7.723,7.723,0,0,0,.883.045,7.35,7.35,0,0,0,4.55-1.565,3.671,3.671,0,0,1-3.427-2.543,3.951,3.951,0,0,0,1.655-.067,3.666,3.666,0,0,1-2.935-3.6v-.045a3.664,3.664,0,0,0,1.655.464,3.658,3.658,0,0,1-1.632-3.052,3.62,3.62,0,0,1,.5-1.85,10.409,10.409,0,0,0,7.557,3.835,3.674,3.674,0,0,1,6.255-3.348,7.184,7.184,0,0,0,2.325-.883,3.656,3.656,0,0,1-1.61,2.018,7.3,7.3,0,0,0,2.113-.57A7.717,7.717,0,0,1,19.626,40.876Z" transform="translate(0 -32)"/>
</svg>
